<svg version="1.2" xmlns="http://www.w3.org/2000/svg" viewBox="0 0 1646 1385" width="24" height="24">
	<style>
		.s0 { fill: #df7c12 } 
		.s1 { fill: #000000 } 
	</style>
	<path id="Forma 1" class="s0" d="m929.02 82.82c-63.27-87.87-165.46-87.48-228.04 0.89l-640.83 904.83c-46.06 65.04-59.28 161.67-33.78 246.16 25.5 84.5 84.11 139.25 149.56 139l1288.7-5.04c64.94-0.25 123.62-55.47 148.46-140.16 24.84-84.69 10.37-181.21-35.69-245.88 0 0-647.88-899.81-648.38-899.8z"/>
	<path id="Forma 2" fill-rule="evenodd" class="s1" d="m820.43 1296.18c-348.02 1.36-629.56-57.88-629.85-132.54-0.29-74.65 280.78-136.09 628.8-137.45 348.01-1.36 629.56 57.88 629.85 132.53 0.29 74.66-280.78 136.1-628.8 137.46z"/>
</svg>